<mxfile host="Electron" agent="Mozilla/5.0 (Windows NT 10.0; Win64; x64) AppleWebKit/537.36 (KHTML, like Gecko) draw.io/24.7.8 Chrome/128.0.6613.36 Electron/32.0.1 Safari/537.36" version="24.7.8">
  <diagram id="C5RBs43oDa-KdzZeNtuy" name="Page-1">
    <mxGraphModel dx="1838" dy="1126" grid="1" gridSize="10" guides="1" tooltips="1" connect="1" arrows="1" fold="1" page="1" pageScale="1" pageWidth="827" pageHeight="1169" math="0" shadow="0">
      <root>
        <mxCell id="WIyWlLk6GJQsqaUBKTNV-0" />
        <mxCell id="WIyWlLk6GJQsqaUBKTNV-1" parent="WIyWlLk6GJQsqaUBKTNV-0" />
        <mxCell id="EeeF___QMRqapKU7vAIY-19" value="Tasks file updating" style="swimlane;whiteSpace=wrap;html=1;" vertex="1" parent="WIyWlLk6GJQsqaUBKTNV-1">
          <mxGeometry x="40" y="30" width="1380" height="580" as="geometry" />
        </mxCell>
        <mxCell id="EeeF___QMRqapKU7vAIY-12" style="edgeStyle=orthogonalEdgeStyle;rounded=0;orthogonalLoop=1;jettySize=auto;html=1;exitX=1;exitY=0.5;exitDx=0;exitDy=0;exitPerimeter=0;entryX=0;entryY=0.5;entryDx=0;entryDy=0;" edge="1" parent="EeeF___QMRqapKU7vAIY-19" source="EeeF___QMRqapKU7vAIY-0" target="EeeF___QMRqapKU7vAIY-2">
          <mxGeometry relative="1" as="geometry" />
        </mxCell>
        <mxCell id="EeeF___QMRqapKU7vAIY-0" value="Need to add / update daily task" style="strokeWidth=2;html=1;shape=mxgraph.flowchart.start_1;whiteSpace=wrap;" vertex="1" parent="EeeF___QMRqapKU7vAIY-19">
          <mxGeometry x="20" y="90" width="100" height="60" as="geometry" />
        </mxCell>
        <mxCell id="EeeF___QMRqapKU7vAIY-13" style="edgeStyle=orthogonalEdgeStyle;rounded=0;orthogonalLoop=1;jettySize=auto;html=1;exitX=1;exitY=0.5;exitDx=0;exitDy=0;entryX=0;entryY=0.5;entryDx=0;entryDy=0;" edge="1" parent="EeeF___QMRqapKU7vAIY-19" source="EeeF___QMRqapKU7vAIY-2" target="EeeF___QMRqapKU7vAIY-3">
          <mxGeometry relative="1" as="geometry" />
        </mxCell>
        <mxCell id="EeeF___QMRqapKU7vAIY-2" value="Find the biggest exsting id, add one to this number and it will be the id of a new task. Notice that it must be unique id across all tasks&amp;nbsp;" style="rounded=1;whiteSpace=wrap;html=1;absoluteArcSize=1;arcSize=14;strokeWidth=2;" vertex="1" parent="EeeF___QMRqapKU7vAIY-19">
          <mxGeometry x="190" y="65" width="140" height="110" as="geometry" />
        </mxCell>
        <mxCell id="EeeF___QMRqapKU7vAIY-14" style="edgeStyle=orthogonalEdgeStyle;rounded=0;orthogonalLoop=1;jettySize=auto;html=1;exitX=0.5;exitY=1;exitDx=0;exitDy=0;entryX=0.5;entryY=0;entryDx=0;entryDy=0;" edge="1" parent="EeeF___QMRqapKU7vAIY-19" source="EeeF___QMRqapKU7vAIY-3" target="EeeF___QMRqapKU7vAIY-8">
          <mxGeometry relative="1" as="geometry" />
        </mxCell>
        <mxCell id="EeeF___QMRqapKU7vAIY-3" value="Add the new task object to the appropriate array" style="rounded=1;whiteSpace=wrap;html=1;absoluteArcSize=1;arcSize=14;strokeWidth=2;" vertex="1" parent="EeeF___QMRqapKU7vAIY-19">
          <mxGeometry x="400" y="70" width="100" height="100" as="geometry" />
        </mxCell>
        <mxCell id="EeeF___QMRqapKU7vAIY-4" value="An example json file with tasks:&amp;nbsp;&lt;div&gt;{&lt;/div&gt;&lt;div&gt;&amp;nbsp; monday: [&amp;nbsp; //tasks for monday, this value can be for example tuesday, wednesday, week, month&lt;/div&gt;&lt;div&gt;&amp;nbsp; &amp;nbsp; {&lt;/div&gt;&lt;div&gt;&amp;nbsp; &amp;nbsp; &amp;nbsp; &amp;nbsp;id: 1, //unique id, as in SQL auto increment&lt;/div&gt;&lt;div&gt;&amp;nbsp; &amp;nbsp; &amp;nbsp; &amp;nbsp;title: { fi: &quot;Voita 5 peliä&quot; }, //title of the task, the fi means that it is in Finnish&lt;/div&gt;&lt;div&gt;&amp;nbsp; &amp;nbsp; &amp;nbsp; &amp;nbsp;content: { fi: &quot;Sun pitää voittaa tänään 5 peliä&quot; },&amp;nbsp; //The body of the task&lt;/div&gt;&lt;div&gt;&amp;nbsp; &amp;nbsp; &amp;nbsp; &amp;nbsp;amount: 5,&amp;nbsp; // how much of atomic tasks to do, here 5 games = 5 tasks&lt;/div&gt;&lt;div&gt;&amp;nbsp; &amp;nbsp; &amp;nbsp; &amp;nbsp;type: &quot;win_battle&quot;,&amp;nbsp; // an enum type value of the atomic task&lt;/div&gt;&lt;div&gt;&amp;nbsp; &amp;nbsp; &amp;nbsp; &amp;nbsp;coins: 10,&amp;nbsp; //how much coins the player gets after completing the whole task, here it is for 5 won games&lt;/div&gt;&lt;div&gt;&amp;nbsp; &amp;nbsp; &amp;nbsp; &amp;nbsp;points: 20&amp;nbsp; //how much points player gets after completing the whole task&lt;/div&gt;&lt;div&gt;&amp;nbsp; &amp;nbsp; }&lt;/div&gt;&lt;div&gt;&amp;nbsp; ]&lt;/div&gt;&lt;div&gt;}&lt;/div&gt;" style="shape=note;whiteSpace=wrap;html=1;backgroundOutline=1;darkOpacity=0.05;align=left;" vertex="1" parent="EeeF___QMRqapKU7vAIY-19">
          <mxGeometry x="740" y="40" width="600" height="205" as="geometry" />
        </mxCell>
        <mxCell id="EeeF___QMRqapKU7vAIY-6" value="The task type values:&lt;div&gt;1. play_battle&lt;/div&gt;&lt;div&gt;2. start_voting&lt;/div&gt;&lt;div&gt;3. collect_diamonds_in_battle&lt;/div&gt;&lt;div&gt;4. win_battle&lt;/div&gt;&lt;div&gt;5. write_chat_message&lt;/div&gt;&lt;div&gt;6. start_battle_with_new_character&lt;/div&gt;&lt;div&gt;7. vote&lt;/div&gt;" style="shape=note;whiteSpace=wrap;html=1;backgroundOutline=1;darkOpacity=0.05;align=left;" vertex="1" parent="EeeF___QMRqapKU7vAIY-19">
          <mxGeometry x="740" y="290" width="200" height="130" as="geometry" />
        </mxCell>
        <mxCell id="EeeF___QMRqapKU7vAIY-9" style="edgeStyle=orthogonalEdgeStyle;rounded=0;orthogonalLoop=1;jettySize=auto;html=1;exitX=0;exitY=0.5;exitDx=0;exitDy=0;entryX=0.5;entryY=1;entryDx=0;entryDy=0;" edge="1" parent="EeeF___QMRqapKU7vAIY-19" source="EeeF___QMRqapKU7vAIY-8" target="EeeF___QMRqapKU7vAIY-2">
          <mxGeometry relative="1" as="geometry" />
        </mxCell>
        <mxCell id="EeeF___QMRqapKU7vAIY-17" value="No" style="edgeLabel;html=1;align=center;verticalAlign=middle;resizable=0;points=[];" vertex="1" connectable="0" parent="EeeF___QMRqapKU7vAIY-9">
          <mxGeometry x="-0.8135" y="1" relative="1" as="geometry">
            <mxPoint as="offset" />
          </mxGeometry>
        </mxCell>
        <mxCell id="EeeF___QMRqapKU7vAIY-15" style="edgeStyle=orthogonalEdgeStyle;rounded=0;orthogonalLoop=1;jettySize=auto;html=1;exitX=0.5;exitY=1;exitDx=0;exitDy=0;entryX=0.5;entryY=0;entryDx=0;entryDy=0;" edge="1" parent="EeeF___QMRqapKU7vAIY-19" source="EeeF___QMRqapKU7vAIY-8" target="EeeF___QMRqapKU7vAIY-11">
          <mxGeometry relative="1" as="geometry" />
        </mxCell>
        <mxCell id="EeeF___QMRqapKU7vAIY-18" value="Yes" style="edgeLabel;html=1;align=center;verticalAlign=middle;resizable=0;points=[];" vertex="1" connectable="0" parent="EeeF___QMRqapKU7vAIY-15">
          <mxGeometry x="-0.2923" y="2" relative="1" as="geometry">
            <mxPoint as="offset" />
          </mxGeometry>
        </mxCell>
        <mxCell id="EeeF___QMRqapKU7vAIY-8" value="Are all new tasks added?" style="rhombus;whiteSpace=wrap;html=1;" vertex="1" parent="EeeF___QMRqapKU7vAIY-19">
          <mxGeometry x="367" y="270" width="166" height="115" as="geometry" />
        </mxCell>
        <mxCell id="EeeF___QMRqapKU7vAIY-10" value="Tasks are updated" style="strokeWidth=2;html=1;shape=mxgraph.flowchart.terminator;whiteSpace=wrap;" vertex="1" parent="EeeF___QMRqapKU7vAIY-19">
          <mxGeometry x="20" y="470" width="100" height="60" as="geometry" />
        </mxCell>
        <mxCell id="EeeF___QMRqapKU7vAIY-11" value="Restrart server with the updated file, so that the tasks are loaded to RAM" style="rounded=1;whiteSpace=wrap;html=1;absoluteArcSize=1;arcSize=14;strokeWidth=2;" vertex="1" parent="EeeF___QMRqapKU7vAIY-19">
          <mxGeometry x="400" y="450" width="100" height="100" as="geometry" />
        </mxCell>
        <mxCell id="EeeF___QMRqapKU7vAIY-16" style="edgeStyle=orthogonalEdgeStyle;rounded=0;orthogonalLoop=1;jettySize=auto;html=1;exitX=0;exitY=0.5;exitDx=0;exitDy=0;entryX=1;entryY=0.5;entryDx=0;entryDy=0;entryPerimeter=0;" edge="1" parent="EeeF___QMRqapKU7vAIY-19" source="EeeF___QMRqapKU7vAIY-11" target="EeeF___QMRqapKU7vAIY-10">
          <mxGeometry relative="1" as="geometry" />
        </mxCell>
        <mxCell id="EeeF___QMRqapKU7vAIY-63" value="Tasks registration logic" style="swimlane;whiteSpace=wrap;html=1;" vertex="1" parent="WIyWlLk6GJQsqaUBKTNV-1">
          <mxGeometry x="40" y="720" width="1400" height="920" as="geometry" />
        </mxCell>
        <mxCell id="EeeF___QMRqapKU7vAIY-31" style="edgeStyle=orthogonalEdgeStyle;rounded=0;orthogonalLoop=1;jettySize=auto;html=1;exitX=1;exitY=0.5;exitDx=0;exitDy=0;exitPerimeter=0;" edge="1" parent="EeeF___QMRqapKU7vAIY-63" source="EeeF___QMRqapKU7vAIY-20" target="EeeF___QMRqapKU7vAIY-21">
          <mxGeometry relative="1" as="geometry" />
        </mxCell>
        <mxCell id="EeeF___QMRqapKU7vAIY-20" value="Player have completed an atomic task" style="strokeWidth=2;html=1;shape=mxgraph.flowchart.start_1;whiteSpace=wrap;" vertex="1" parent="EeeF___QMRqapKU7vAIY-63">
          <mxGeometry x="40" y="70" width="100" height="60" as="geometry" />
        </mxCell>
        <mxCell id="EeeF___QMRqapKU7vAIY-21" value="Sends data&amp;nbsp;&lt;div&gt;about it&lt;/div&gt;" style="shape=parallelogram;html=1;strokeWidth=2;perimeter=parallelogramPerimeter;whiteSpace=wrap;rounded=1;arcSize=12;size=0.23;" vertex="1" parent="EeeF___QMRqapKU7vAIY-63">
          <mxGeometry x="285" y="70" width="100" height="60" as="geometry" />
        </mxCell>
        <mxCell id="EeeF___QMRqapKU7vAIY-41" style="edgeStyle=orthogonalEdgeStyle;rounded=0;orthogonalLoop=1;jettySize=auto;html=1;exitX=1;exitY=0.5;exitDx=0;exitDy=0;exitPerimeter=0;" edge="1" parent="EeeF___QMRqapKU7vAIY-63" source="EeeF___QMRqapKU7vAIY-22" target="EeeF___QMRqapKU7vAIY-38">
          <mxGeometry relative="1" as="geometry" />
        </mxCell>
        <mxCell id="EeeF___QMRqapKU7vAIY-42" value="Yes" style="edgeLabel;html=1;align=center;verticalAlign=middle;resizable=0;points=[];" vertex="1" connectable="0" parent="EeeF___QMRqapKU7vAIY-41">
          <mxGeometry x="-0.6451" y="3" relative="1" as="geometry">
            <mxPoint as="offset" />
          </mxGeometry>
        </mxCell>
        <mxCell id="EeeF___QMRqapKU7vAIY-22" value="Is the task already completed?" style="strokeWidth=2;html=1;shape=mxgraph.flowchart.decision;whiteSpace=wrap;" vertex="1" parent="EeeF___QMRqapKU7vAIY-63">
          <mxGeometry x="475" y="300" width="160" height="130" as="geometry" />
        </mxCell>
        <mxCell id="EeeF___QMRqapKU7vAIY-25" value="&lt;br&gt;&lt;span style=&quot;color: rgb(0, 0, 0); font-family: Helvetica; font-size: 12px; font-style: normal; font-variant-ligatures: normal; font-variant-caps: normal; font-weight: 400; letter-spacing: normal; orphans: 2; text-align: center; text-indent: 0px; text-transform: none; widows: 2; word-spacing: 0px; -webkit-text-stroke-width: 0px; white-space: normal; background-color: rgb(251, 251, 251); text-decoration-thickness: initial; text-decoration-style: initial; text-decoration-color: initial; display: inline !important; float: none;&quot;&gt;Register the atomic task completion&amp;nbsp;&lt;/span&gt;&lt;div&gt;&lt;span style=&quot;color: rgb(0, 0, 0); font-family: Helvetica; font-size: 12px; font-style: normal; font-variant-ligatures: normal; font-variant-caps: normal; font-weight: 400; letter-spacing: normal; orphans: 2; text-align: center; text-indent: 0px; text-transform: none; widows: 2; word-spacing: 0px; -webkit-text-stroke-width: 0px; white-space: normal; background-color: rgb(251, 251, 251); text-decoration-thickness: initial; text-decoration-style: initial; text-decoration-color: initial; display: inline !important; float: none;&quot;&gt;in DB&lt;/span&gt;&lt;br&gt;&lt;br&gt;&lt;/div&gt;" style="strokeWidth=2;html=1;shape=mxgraph.flowchart.stored_data;whiteSpace=wrap;" vertex="1" parent="EeeF___QMRqapKU7vAIY-63">
          <mxGeometry x="495" y="500" width="130" height="60" as="geometry" />
        </mxCell>
        <mxCell id="EeeF___QMRqapKU7vAIY-53" style="edgeStyle=orthogonalEdgeStyle;rounded=0;orthogonalLoop=1;jettySize=auto;html=1;exitX=0;exitY=0.5;exitDx=0;exitDy=0;exitPerimeter=0;entryX=1;entryY=0.5;entryDx=0;entryDy=0;" edge="1" parent="EeeF___QMRqapKU7vAIY-63" source="EeeF___QMRqapKU7vAIY-26" target="EeeF___QMRqapKU7vAIY-51">
          <mxGeometry relative="1" as="geometry" />
        </mxCell>
        <mxCell id="EeeF___QMRqapKU7vAIY-57" value="No" style="edgeLabel;html=1;align=center;verticalAlign=middle;resizable=0;points=[];" vertex="1" connectable="0" parent="EeeF___QMRqapKU7vAIY-53">
          <mxGeometry x="-0.5833" y="-3" relative="1" as="geometry">
            <mxPoint as="offset" />
          </mxGeometry>
        </mxCell>
        <mxCell id="EeeF___QMRqapKU7vAIY-26" value="Is the&amp;nbsp;&lt;div&gt;whole task completed?&lt;/div&gt;" style="strokeWidth=2;html=1;shape=mxgraph.flowchart.decision;whiteSpace=wrap;" vertex="1" parent="EeeF___QMRqapKU7vAIY-63">
          <mxGeometry x="500" y="630" width="120" height="100" as="geometry" />
        </mxCell>
        <mxCell id="EeeF___QMRqapKU7vAIY-54" style="edgeStyle=orthogonalEdgeStyle;rounded=0;orthogonalLoop=1;jettySize=auto;html=1;exitX=0;exitY=0.5;exitDx=0;exitDy=0;exitPerimeter=0;entryX=1;entryY=0.5;entryDx=0;entryDy=0;" edge="1" parent="EeeF___QMRqapKU7vAIY-63" source="EeeF___QMRqapKU7vAIY-28" target="EeeF___QMRqapKU7vAIY-52">
          <mxGeometry relative="1" as="geometry" />
        </mxCell>
        <mxCell id="EeeF___QMRqapKU7vAIY-28" value="&lt;div&gt;Mark the task completion time&amp;nbsp;&lt;/div&gt;&lt;div&gt;in DB&lt;br&gt;&lt;/div&gt;" style="strokeWidth=2;html=1;shape=mxgraph.flowchart.stored_data;whiteSpace=wrap;" vertex="1" parent="EeeF___QMRqapKU7vAIY-63">
          <mxGeometry x="495" y="810" width="130" height="60" as="geometry" />
        </mxCell>
        <mxCell id="EeeF___QMRqapKU7vAIY-33" style="edgeStyle=orthogonalEdgeStyle;rounded=0;orthogonalLoop=1;jettySize=auto;html=1;exitX=1;exitY=0.5;exitDx=0;exitDy=0;exitPerimeter=0;" edge="1" parent="EeeF___QMRqapKU7vAIY-63" source="EeeF___QMRqapKU7vAIY-29" target="EeeF___QMRqapKU7vAIY-30">
          <mxGeometry relative="1" as="geometry" />
        </mxCell>
        <mxCell id="EeeF___QMRqapKU7vAIY-39" value="No" style="edgeLabel;html=1;align=center;verticalAlign=middle;resizable=0;points=[];" vertex="1" connectable="0" parent="EeeF___QMRqapKU7vAIY-33">
          <mxGeometry x="-0.5093" y="2" relative="1" as="geometry">
            <mxPoint as="offset" />
          </mxGeometry>
        </mxCell>
        <mxCell id="EeeF___QMRqapKU7vAIY-36" style="edgeStyle=orthogonalEdgeStyle;rounded=0;orthogonalLoop=1;jettySize=auto;html=1;exitX=0.5;exitY=1;exitDx=0;exitDy=0;exitPerimeter=0;" edge="1" parent="EeeF___QMRqapKU7vAIY-63" source="EeeF___QMRqapKU7vAIY-29" target="EeeF___QMRqapKU7vAIY-22">
          <mxGeometry relative="1" as="geometry" />
        </mxCell>
        <mxCell id="EeeF___QMRqapKU7vAIY-40" value="Yes" style="edgeLabel;html=1;align=center;verticalAlign=middle;resizable=0;points=[];" vertex="1" connectable="0" parent="EeeF___QMRqapKU7vAIY-36">
          <mxGeometry x="-0.7148" relative="1" as="geometry">
            <mxPoint as="offset" />
          </mxGeometry>
        </mxCell>
        <mxCell id="EeeF___QMRqapKU7vAIY-29" value="Is the whole task started?" style="strokeWidth=2;html=1;shape=mxgraph.flowchart.decision;whiteSpace=wrap;" vertex="1" parent="EeeF___QMRqapKU7vAIY-63">
          <mxGeometry x="495" y="50" width="120" height="100" as="geometry" />
        </mxCell>
        <mxCell id="EeeF___QMRqapKU7vAIY-30" value="&lt;div&gt;Write the starting&amp;nbsp;&lt;/div&gt;&lt;div&gt;date to DB&lt;/div&gt;" style="strokeWidth=2;html=1;shape=mxgraph.flowchart.stored_data;whiteSpace=wrap;" vertex="1" parent="EeeF___QMRqapKU7vAIY-63">
          <mxGeometry x="730" y="70" width="130" height="60" as="geometry" />
        </mxCell>
        <mxCell id="EeeF___QMRqapKU7vAIY-32" style="edgeStyle=orthogonalEdgeStyle;rounded=0;orthogonalLoop=1;jettySize=auto;html=1;exitX=1;exitY=0.5;exitDx=0;exitDy=0;entryX=0;entryY=0.5;entryDx=0;entryDy=0;entryPerimeter=0;" edge="1" parent="EeeF___QMRqapKU7vAIY-63" source="EeeF___QMRqapKU7vAIY-21" target="EeeF___QMRqapKU7vAIY-29">
          <mxGeometry relative="1" as="geometry" />
        </mxCell>
        <mxCell id="EeeF___QMRqapKU7vAIY-34" style="edgeStyle=orthogonalEdgeStyle;rounded=0;orthogonalLoop=1;jettySize=auto;html=1;exitX=0.93;exitY=0.5;exitDx=0;exitDy=0;exitPerimeter=0;entryX=0.5;entryY=0;entryDx=0;entryDy=0;entryPerimeter=0;" edge="1" parent="EeeF___QMRqapKU7vAIY-63" source="EeeF___QMRqapKU7vAIY-30" target="EeeF___QMRqapKU7vAIY-22">
          <mxGeometry relative="1" as="geometry">
            <Array as="points">
              <mxPoint x="870" y="100" />
              <mxPoint x="870" y="220" />
              <mxPoint x="555" y="220" />
            </Array>
          </mxGeometry>
        </mxCell>
        <mxCell id="EeeF___QMRqapKU7vAIY-37" style="edgeStyle=orthogonalEdgeStyle;rounded=0;orthogonalLoop=1;jettySize=auto;html=1;exitX=0.5;exitY=1;exitDx=0;exitDy=0;exitPerimeter=0;entryX=0.458;entryY=-0.028;entryDx=0;entryDy=0;entryPerimeter=0;" edge="1" parent="EeeF___QMRqapKU7vAIY-63" source="EeeF___QMRqapKU7vAIY-22" target="EeeF___QMRqapKU7vAIY-25">
          <mxGeometry relative="1" as="geometry" />
        </mxCell>
        <mxCell id="EeeF___QMRqapKU7vAIY-43" value="No" style="edgeLabel;html=1;align=center;verticalAlign=middle;resizable=0;points=[];" vertex="1" connectable="0" parent="EeeF___QMRqapKU7vAIY-37">
          <mxGeometry x="-0.3786" y="-3" relative="1" as="geometry">
            <mxPoint as="offset" />
          </mxGeometry>
        </mxCell>
        <mxCell id="EeeF___QMRqapKU7vAIY-38" value="Nothing else to do" style="strokeWidth=2;html=1;shape=mxgraph.flowchart.terminator;whiteSpace=wrap;" vertex="1" parent="EeeF___QMRqapKU7vAIY-63">
          <mxGeometry x="745" y="335" width="100" height="60" as="geometry" />
        </mxCell>
        <mxCell id="EeeF___QMRqapKU7vAIY-44" style="edgeStyle=orthogonalEdgeStyle;rounded=0;orthogonalLoop=1;jettySize=auto;html=1;exitX=0.5;exitY=1;exitDx=0;exitDy=0;exitPerimeter=0;entryX=0.5;entryY=0;entryDx=0;entryDy=0;entryPerimeter=0;" edge="1" parent="EeeF___QMRqapKU7vAIY-63" source="EeeF___QMRqapKU7vAIY-25" target="EeeF___QMRqapKU7vAIY-26">
          <mxGeometry relative="1" as="geometry" />
        </mxCell>
        <mxCell id="EeeF___QMRqapKU7vAIY-48" style="edgeStyle=orthogonalEdgeStyle;rounded=0;orthogonalLoop=1;jettySize=auto;html=1;exitX=0.5;exitY=1;exitDx=0;exitDy=0;exitPerimeter=0;entryX=0.5;entryY=0;entryDx=0;entryDy=0;entryPerimeter=0;" edge="1" parent="EeeF___QMRqapKU7vAIY-63" source="EeeF___QMRqapKU7vAIY-26" target="EeeF___QMRqapKU7vAIY-28">
          <mxGeometry relative="1" as="geometry" />
        </mxCell>
        <mxCell id="EeeF___QMRqapKU7vAIY-49" value="Yes" style="edgeLabel;html=1;align=center;verticalAlign=middle;resizable=0;points=[];" vertex="1" connectable="0" parent="EeeF___QMRqapKU7vAIY-48">
          <mxGeometry x="-0.5087" relative="1" as="geometry">
            <mxPoint as="offset" />
          </mxGeometry>
        </mxCell>
        <mxCell id="EeeF___QMRqapKU7vAIY-50" value="Player gets the notification about task" style="strokeWidth=2;html=1;shape=mxgraph.flowchart.terminator;whiteSpace=wrap;" vertex="1" parent="EeeF___QMRqapKU7vAIY-63">
          <mxGeometry x="40" y="715" width="100" height="60" as="geometry" />
        </mxCell>
        <mxCell id="EeeF___QMRqapKU7vAIY-51" value="Send notification&amp;nbsp;&lt;div&gt;via MQTT&amp;nbsp;&lt;div&gt;that atomic task is completed&lt;/div&gt;&lt;/div&gt;" style="shape=parallelogram;html=1;strokeWidth=2;perimeter=parallelogramPerimeter;whiteSpace=wrap;rounded=1;arcSize=12;size=0.23;" vertex="1" parent="EeeF___QMRqapKU7vAIY-63">
          <mxGeometry x="260" y="645" width="150" height="70" as="geometry" />
        </mxCell>
        <mxCell id="EeeF___QMRqapKU7vAIY-52" value="Send notification&amp;nbsp;&lt;div&gt;via MQTT&amp;nbsp;&lt;div&gt;that the whole&amp;nbsp;&lt;/div&gt;&lt;div&gt;task is completed&lt;/div&gt;&lt;/div&gt;" style="shape=parallelogram;html=1;strokeWidth=2;perimeter=parallelogramPerimeter;whiteSpace=wrap;rounded=1;arcSize=12;size=0.23;" vertex="1" parent="EeeF___QMRqapKU7vAIY-63">
          <mxGeometry x="255" y="800" width="160" height="80" as="geometry" />
        </mxCell>
        <mxCell id="EeeF___QMRqapKU7vAIY-55" style="edgeStyle=orthogonalEdgeStyle;rounded=0;orthogonalLoop=1;jettySize=auto;html=1;exitX=0;exitY=0.5;exitDx=0;exitDy=0;entryX=1;entryY=0.5;entryDx=0;entryDy=0;entryPerimeter=0;" edge="1" parent="EeeF___QMRqapKU7vAIY-63" source="EeeF___QMRqapKU7vAIY-51" target="EeeF___QMRqapKU7vAIY-50">
          <mxGeometry relative="1" as="geometry" />
        </mxCell>
        <mxCell id="EeeF___QMRqapKU7vAIY-56" style="edgeStyle=orthogonalEdgeStyle;rounded=0;orthogonalLoop=1;jettySize=auto;html=1;exitX=0;exitY=0.5;exitDx=0;exitDy=0;entryX=1;entryY=0.5;entryDx=0;entryDy=0;entryPerimeter=0;" edge="1" parent="EeeF___QMRqapKU7vAIY-63" source="EeeF___QMRqapKU7vAIY-52" target="EeeF___QMRqapKU7vAIY-50">
          <mxGeometry relative="1" as="geometry">
            <Array as="points">
              <mxPoint x="200" y="840" />
              <mxPoint x="200" y="745" />
            </Array>
          </mxGeometry>
        </mxCell>
        <mxCell id="EeeF___QMRqapKU7vAIY-58" value="The task completion is dictated by the completedAt field. For example if now is 30.09 and the date in the completedAt field also equals 30.09, that means that the task is already completed. The same principle with weekly tasks (week number) and month." style="shape=note;whiteSpace=wrap;html=1;backgroundOutline=1;darkOpacity=0.05;align=left;" vertex="1" parent="EeeF___QMRqapKU7vAIY-63">
          <mxGeometry x="970" y="370" width="390" height="120" as="geometry" />
        </mxCell>
        <mxCell id="EeeF___QMRqapKU7vAIY-59" value="There are no separate endpoint for sending data about the completed task. It is job of API to determine that the task is completed.&lt;div&gt;For example if the atomic task is to win a battle, API should register the completion of the task when player sends data of the ended game results&amp;nbsp;&lt;/div&gt;" style="shape=note;whiteSpace=wrap;html=1;backgroundOutline=1;darkOpacity=0.05;align=left;" vertex="1" parent="EeeF___QMRqapKU7vAIY-63">
          <mxGeometry x="970" y="240" width="390" height="130" as="geometry" />
        </mxCell>
        <mxCell id="EeeF___QMRqapKU7vAIY-60" value="The whole task is completed when when there are no atomic task left to do (amountLeft field equals 0)" style="shape=note;whiteSpace=wrap;html=1;backgroundOutline=1;darkOpacity=0.05;align=left;" vertex="1" parent="EeeF___QMRqapKU7vAIY-63">
          <mxGeometry x="960" y="612.5" width="390" height="90" as="geometry" />
        </mxCell>
        <mxCell id="EeeF___QMRqapKU7vAIY-61" value="Notification is sent to the topic:&lt;div&gt;/player/{player_id}/daily_task/{task_type}/update&lt;/div&gt;" style="shape=note;whiteSpace=wrap;html=1;backgroundOutline=1;darkOpacity=0.05;align=left;" vertex="1" parent="EeeF___QMRqapKU7vAIY-63">
          <mxGeometry x="960" y="702.5" width="390" height="45" as="geometry" />
        </mxCell>
        <mxCell id="EeeF___QMRqapKU7vAIY-62" value="Notification is sent to the topic:&lt;div&gt;/player/{player_id}/daily_task/{task_type}/end&lt;/div&gt;" style="shape=note;whiteSpace=wrap;html=1;backgroundOutline=1;darkOpacity=0.05;align=left;" vertex="1" parent="EeeF___QMRqapKU7vAIY-63">
          <mxGeometry x="960" y="817.5" width="390" height="45" as="geometry" />
        </mxCell>
      </root>
    </mxGraphModel>
  </diagram>
</mxfile>
